<svg version="1.1" viewBox="0.0 0.0 299.06299212598424 260.62467191601047" fill="none" stroke="none" stroke-linecap="square" stroke-miterlimit="10" xmlns:xlink="http://www.w3.org/1999/xlink" xmlns="http://www.w3.org/2000/svg"><clipPath id="p.0"><path d="m0 0l299.063 0l0 260.62466l-299.063 0l0 -260.62466z" clip-rule="nonzero"/></clipPath><g clip-path="url(#p.0)"><path fill="#000000" fill-opacity="0.0" d="m0 0l299.063 0l0 260.62466l-299.063 0z" fill-rule="evenodd"/><path fill="#000000" fill-opacity="0.0" d="m39.14042 130.68767l0 0c0 -60.96006 49.417892 -110.37796 110.37795 -110.37796l0 0c29.274048 0 57.34912 11.629072 78.048996 32.328953c20.69989 20.699883 32.328964 48.77495 32.328964 78.049l0 0c0 60.960052 -49.417892 110.377945 -110.37796 110.377945l0 0c-60.96006 0 -110.37795 -49.417892 -110.37795 -110.377945z" fill-rule="evenodd"/><path stroke="#ffffff" stroke-width="1.0" stroke-linejoin="round" stroke-linecap="butt" d="m39.14042 130.68767l0 0c0 -60.96006 49.417892 -110.37796 110.37795 -110.37796l0 0c29.274048 0 57.34912 11.629072 78.048996 32.328953c20.69989 20.699883 32.328964 48.77495 32.328964 78.049l0 0c0 60.960052 -49.417892 110.377945 -110.37796 110.377945l0 0c-60.96006 0 -110.37795 -49.417892 -110.37795 -110.377945z" fill-rule="evenodd"/><path fill="#000000" fill-opacity="0.0" d="m42.439632 123.249344l0 0c0 -60.96006 49.417896 -110.37795 110.377945 -110.37795l0 0c29.274063 0 57.34912 11.629072 78.048996 32.328953c20.69989 20.699879 32.32895 48.774944 32.32895 78.048996l0 0c0 60.960052 -49.417877 110.37796 -110.377945 110.37796l0 0c-60.960052 0 -110.377945 -49.417908 -110.377945 -110.37796z" fill-rule="evenodd"/><path stroke="#ffffff" stroke-width="1.0" stroke-linejoin="round" stroke-linecap="butt" d="m42.439632 123.249344l0 0c0 -60.96006 49.417896 -110.37795 110.377945 -110.37795l0 0c29.274063 0 57.34912 11.629072 78.048996 32.328953c20.69989 20.699879 32.32895 48.774944 32.32895 78.048996l0 0c0 60.960052 -49.417877 110.37796 -110.377945 110.37796l0 0c-60.960052 0 -110.377945 -49.417908 -110.377945 -110.37796z" fill-rule="evenodd"/><path fill="#000000" fill-opacity="0.0" d="m33.45214 135.3392l0 0c0 -60.960068 49.417892 -110.37796 110.37795 -110.37796l0 0c29.274048 0 57.34912 11.629072 78.048996 32.328957c20.69989 20.699883 32.328964 48.77495 32.328964 78.049l0 0c0 60.960052 -49.417892 110.377945 -110.37796 110.377945l0 0c-60.96006 0 -110.37795 -49.417892 -110.37795 -110.377945z" fill-rule="evenodd"/><path stroke="#ffffff" stroke-width="1.0" stroke-linejoin="round" stroke-linecap="butt" d="m33.45214 135.3392l0 0c0 -60.960068 49.417892 -110.37796 110.37795 -110.37796l0 0c29.274048 0 57.34912 11.629072 78.048996 32.328957c20.69989 20.699883 32.328964 48.77495 32.328964 78.049l0 0c0 60.960052 -49.417892 110.377945 -110.37796 110.377945l0 0c-60.96006 0 -110.37795 -49.417892 -110.37795 -110.377945z" fill-rule="evenodd"/><path fill="#000000" fill-opacity="0.0" d="m31.41601 123.249344l0 0c0 -60.96006 49.417892 -110.37795 110.37795 -110.37795l0 0c29.274063 0 57.34912 11.629072 78.048996 32.328953c20.69989 20.699879 32.328964 48.774944 32.328964 78.048996l0 0c0 60.960052 -49.417892 110.37796 -110.37796 110.37796l0 0c-60.96006 0 -110.37795 -49.417908 -110.37795 -110.37796z" fill-rule="evenodd"/><path stroke="#ffffff" stroke-width="1.0" stroke-linejoin="round" stroke-linecap="butt" d="m31.41601 123.249344l0 0c0 -60.96006 49.417892 -110.37795 110.37795 -110.37795l0 0c29.274063 0 57.34912 11.629072 78.048996 32.328953c20.69989 20.699879 32.328964 48.774944 32.328964 78.048996l0 0c0 60.960052 -49.417892 110.37796 -110.37796 110.37796l0 0c-60.96006 0 -110.37795 -49.417908 -110.37795 -110.37796z" fill-rule="evenodd"/><path fill="#000000" fill-opacity="0.0" d="m43.981403 130.68767l0 0c0 -60.96006 49.41789 -110.37796 110.37796 -110.37796l0 0c29.274048 0 57.349106 11.629072 78.048996 32.328953c20.699875 20.699883 32.32895 48.77495 32.32895 78.049l0 0c0 60.960052 -49.417892 110.377945 -110.377945 110.377945l0 0c-60.960068 0 -110.37796 -49.417892 -110.37796 -110.377945z" fill-rule="evenodd"/><path stroke="#ffffff" stroke-width="1.0" stroke-linejoin="round" stroke-linecap="butt" d="m43.981403 130.68767l0 0c0 -60.96006 49.41789 -110.37796 110.37796 -110.37796l0 0c29.274048 0 57.349106 11.629072 78.048996 32.328953c20.699875 20.699883 32.32895 48.77495 32.32895 78.049l0 0c0 60.960052 -49.417892 110.377945 -110.377945 110.377945l0 0c-60.960068 0 -110.37796 -49.417892 -110.37796 -110.377945z" fill-rule="evenodd"/><path fill="#000000" fill-opacity="0.0" d="m42.439632 137.37534l0 0c0 -60.960068 49.417896 -110.37796 110.377945 -110.37796l0 0c29.274063 0 57.34912 11.62907 78.048996 32.328953c20.69989 20.699879 32.32895 48.774944 32.32895 78.04901l0 0c0 60.960052 -49.417877 110.377945 -110.377945 110.377945l0 0c-60.960052 0 -110.377945 -49.417892 -110.377945 -110.377945z" fill-rule="evenodd"/><path stroke="#ffffff" stroke-width="1.0" stroke-linejoin="round" stroke-linecap="butt" d="m42.439632 137.37534l0 0c0 -60.960068 49.417896 -110.37796 110.377945 -110.37796l0 0c29.274063 0 57.34912 11.62907 78.048996 32.328953c20.69989 20.699879 32.32895 48.774944 32.32895 78.04901l0 0c0 60.960052 -49.417877 110.377945 -110.377945 110.377945l0 0c-60.960052 0 -110.377945 -49.417892 -110.377945 -110.377945z" fill-rule="evenodd"/><path fill="#000000" fill-opacity="0.0" d="m33.29101 126.561844l0 0c0 -60.96006 49.41789 -110.37795 110.377945 -110.37795l0 0c29.274063 0 57.34912 11.629072 78.048996 32.328953c20.69989 20.699879 32.328964 48.774944 32.328964 78.048996l0 0c0 60.960052 -49.417892 110.37796 -110.37796 110.37796l0 0c-60.96006 0 -110.377945 -49.417908 -110.377945 -110.37796z" fill-rule="evenodd"/><path stroke="#ffffff" stroke-width="1.0" stroke-linejoin="round" stroke-linecap="butt" d="m33.29101 126.561844l0 0c0 -60.96006 49.41789 -110.37795 110.377945 -110.37795l0 0c29.274063 0 57.34912 11.629072 78.048996 32.328953c20.69989 20.699879 32.328964 48.774944 32.328964 78.048996l0 0c0 60.960052 -49.417892 110.37796 -110.37796 110.37796l0 0c-60.96006 0 -110.377945 -49.417908 -110.377945 -110.37796z" fill-rule="evenodd"/></g></svg>