<svg version="1.1" viewBox="0.0 0.0 152.27034120734908 236.31758530183728" fill="none" stroke="none" stroke-linecap="square" stroke-miterlimit="10" xmlns:xlink="http://www.w3.org/1999/xlink" xmlns="http://www.w3.org/2000/svg"><clipPath id="p.0"><path d="m0 0l152.27034 0l0 236.31758l-152.27034 0l0 -236.31758z" clip-rule="nonzero"/></clipPath><g clip-path="url(#p.0)"><path fill="#000000" fill-opacity="0.0" d="m0 0l152.27034 0l0 236.31758l-152.27034 0z" fill-rule="evenodd"/><path fill="#000000" fill-opacity="0.0" d="m12.685673 19.580685l111.52756 193.16534" fill-rule="evenodd"/><path stroke="#ffffff" stroke-width="1.0" stroke-linejoin="round" stroke-linecap="butt" d="m12.685673 19.580685l111.52756 193.16534" fill-rule="evenodd"/><path fill="#000000" fill-opacity="0.0" d="m21.297026 197.83849l102.92913 -178.26772" fill-rule="evenodd"/><path stroke="#ffffff" stroke-width="1.0" stroke-linejoin="round" stroke-linecap="butt" d="m21.297026 197.83849l102.92913 -178.26772" fill-rule="evenodd"/><path fill="#000000" fill-opacity="0.0" d="m26.935078 33.83009l111.52756 193.16534" fill-rule="evenodd"/><path stroke="#ffffff" stroke-width="1.0" stroke-linejoin="round" stroke-linecap="butt" d="m26.935078 33.83009l111.52756 193.16534" fill-rule="evenodd"/><path fill="#000000" fill-opacity="0.0" d="m12.026498 12.119383l111.52756 193.16536" fill-rule="evenodd"/><path stroke="#ffffff" stroke-width="1.0" stroke-linejoin="round" stroke-linecap="butt" d="m12.026498 12.119383l111.52756 193.16536" fill-rule="evenodd"/><path fill="#000000" fill-opacity="0.0" d="m16.99135 33.83009l111.52756 193.16534" fill-rule="evenodd"/><path stroke="#ffffff" stroke-width="1.0" stroke-linejoin="round" stroke-linecap="butt" d="m16.99135 33.83009l111.52756 193.16534" fill-rule="evenodd"/><path fill="#000000" fill-opacity="0.0" d="m21.297026 19.580685l102.42519 207.05511" fill-rule="evenodd"/><path stroke="#ffffff" stroke-width="1.0" stroke-linejoin="round" stroke-linecap="butt" d="m21.297026 19.580685l102.42519 207.05511" fill-rule="evenodd"/><path fill="#000000" fill-opacity="0.0" d="m36.785305 184.5124l102.92914 -178.26773" fill-rule="evenodd"/><path stroke="#ffffff" stroke-width="1.0" stroke-linejoin="round" stroke-linecap="butt" d="m36.785305 184.5124l102.92914 -178.26773" fill-rule="evenodd"/><path fill="#000000" fill-opacity="0.0" d="m21.297026 219.5492l102.92913 -178.26772" fill-rule="evenodd"/><path stroke="#ffffff" stroke-width="1.0" stroke-linejoin="round" stroke-linecap="butt" d="m21.297026 219.5492l102.92913 -178.26772" fill-rule="evenodd"/><path fill="#000000" fill-opacity="0.0" d="m16.99135 212.24217l102.92914 -178.26772" fill-rule="evenodd"/><path stroke="#ffffff" stroke-width="1.0" stroke-linejoin="round" stroke-linecap="butt" d="m16.99135 212.24217l102.92914 -178.26772" fill-rule="evenodd"/><path fill="#000000" fill-opacity="0.0" d="m32.72273 209.10992l91.244095 -197.00787" fill-rule="evenodd"/><path stroke="#ffffff" stroke-width="1.0" stroke-linejoin="round" stroke-linecap="butt" d="m32.72273 209.10992l91.244095 -197.00787" fill-rule="evenodd"/><path fill="#000000" fill-opacity="0.0" d="m31.240753 190.37718l102.92914 -178.26772" fill-rule="evenodd"/><path stroke="#ffffff" stroke-width="1.0" stroke-linejoin="round" stroke-linecap="butt" d="m31.240753 190.37718l102.92914 -178.26772" fill-rule="evenodd"/><path fill="#000000" fill-opacity="0.0" d="m16.766949 217.69789l111.968506 -174.55118" fill-rule="evenodd"/><path stroke="#ffffff" stroke-width="1.0" stroke-linejoin="round" stroke-linecap="butt" d="m16.766949 217.69789l111.968506 -174.55118" fill-rule="evenodd"/><path fill="#000000" fill-opacity="0.0" d="m21.869713 46.298317l110.20472 173.66928" fill-rule="evenodd"/><path stroke="#ffffff" stroke-width="1.0" stroke-linejoin="round" stroke-linecap="butt" d="m21.869713 46.298317l110.20472 173.66928" fill-rule="evenodd"/></g></svg>